<mxfile host="app.diagrams.net" modified="2022-05-20T07:12:30.643Z" agent="5.0 (Macintosh; Intel Mac OS X 10_15_7) AppleWebKit/537.36 (KHTML, like Gecko) Chrome/99.0.4844.83 Safari/537.36" etag="O_IqlAzXUVcHVsqh5sUN" version="18.0.8" type="github">
  <diagram id="qjcDeQazttdhZt5WZSkM" name="Page-1">
    <mxGraphModel dx="1726" dy="625" grid="1" gridSize="10" guides="1" tooltips="1" connect="1" arrows="1" fold="1" page="1" pageScale="1" pageWidth="827" pageHeight="1169" math="0" shadow="0">
      <root>
        <mxCell id="0" />
        <mxCell id="1" parent="0" />
        <mxCell id="biQY5zSrBsS8nGypmLuS-6" value="if not logged in" style="edgeStyle=orthogonalEdgeStyle;rounded=0;orthogonalLoop=1;jettySize=auto;html=1;entryX=0;entryY=0;entryDx=0;entryDy=0;exitX=0.274;exitY=1.05;exitDx=0;exitDy=0;exitPerimeter=0;" edge="1" parent="1" source="biQY5zSrBsS8nGypmLuS-1" target="biQY5zSrBsS8nGypmLuS-5">
          <mxGeometry relative="1" as="geometry" />
        </mxCell>
        <mxCell id="biQY5zSrBsS8nGypmLuS-9" style="edgeStyle=orthogonalEdgeStyle;rounded=0;orthogonalLoop=1;jettySize=auto;html=1;entryX=0;entryY=0.5;entryDx=0;entryDy=0;" edge="1" parent="1" source="biQY5zSrBsS8nGypmLuS-1" target="biQY5zSrBsS8nGypmLuS-8">
          <mxGeometry relative="1" as="geometry">
            <mxPoint x="810" y="260" as="targetPoint" />
          </mxGeometry>
        </mxCell>
        <mxCell id="biQY5zSrBsS8nGypmLuS-1" value="&lt;div style=&quot;background-color: rgb(255, 255, 255); font-family: Menlo, Monaco, &amp;quot;Courier New&amp;quot;, monospace; line-height: 18px;&quot;&gt;https://&amp;lt;APPID&amp;gt;.app.netsuite.com/app/login/oauth2/authorize.nl&lt;br&gt;[CLIENT_ID]&lt;/div&gt;" style="rounded=1;whiteSpace=wrap;html=1;" vertex="1" parent="1">
          <mxGeometry x="290" y="60" width="470" height="50" as="geometry" />
        </mxCell>
        <mxCell id="biQY5zSrBsS8nGypmLuS-3" style="edgeStyle=orthogonalEdgeStyle;rounded=0;orthogonalLoop=1;jettySize=auto;html=1;entryX=0;entryY=0.75;entryDx=0;entryDy=0;" edge="1" parent="1" source="biQY5zSrBsS8nGypmLuS-2" target="biQY5zSrBsS8nGypmLuS-1">
          <mxGeometry relative="1" as="geometry" />
        </mxCell>
        <mxCell id="biQY5zSrBsS8nGypmLuS-4" value="redirects to signin page" style="edgeLabel;html=1;align=center;verticalAlign=middle;resizable=0;points=[];" vertex="1" connectable="0" parent="biQY5zSrBsS8nGypmLuS-3">
          <mxGeometry x="-0.1937" y="1" relative="1" as="geometry">
            <mxPoint y="1" as="offset" />
          </mxGeometry>
        </mxCell>
        <mxCell id="biQY5zSrBsS8nGypmLuS-2" value="User clicks on Authorize button" style="rounded=1;whiteSpace=wrap;html=1;" vertex="1" parent="1">
          <mxGeometry x="-60" y="220" width="120" height="60" as="geometry" />
        </mxCell>
        <mxCell id="biQY5zSrBsS8nGypmLuS-7" value="back to origin page after login" style="edgeStyle=orthogonalEdgeStyle;rounded=0;orthogonalLoop=1;jettySize=auto;html=1;exitX=1;exitY=0;exitDx=0;exitDy=0;entryX=0.662;entryY=1.01;entryDx=0;entryDy=0;entryPerimeter=0;" edge="1" parent="1" source="biQY5zSrBsS8nGypmLuS-5" target="biQY5zSrBsS8nGypmLuS-1">
          <mxGeometry relative="1" as="geometry" />
        </mxCell>
        <mxCell id="biQY5zSrBsS8nGypmLuS-5" value="NetSuite Login FLow" style="rounded=1;whiteSpace=wrap;html=1;" vertex="1" parent="1">
          <mxGeometry x="475" y="330" width="120" height="60" as="geometry" />
        </mxCell>
        <mxCell id="biQY5zSrBsS8nGypmLuS-11" style="edgeStyle=orthogonalEdgeStyle;rounded=0;orthogonalLoop=1;jettySize=auto;html=1;entryX=0.5;entryY=0;entryDx=0;entryDy=0;" edge="1" parent="1" source="biQY5zSrBsS8nGypmLuS-8" target="biQY5zSrBsS8nGypmLuS-10">
          <mxGeometry relative="1" as="geometry" />
        </mxCell>
        <mxCell id="biQY5zSrBsS8nGypmLuS-8" value="&lt;div style=&quot;background-color: rgb(255, 255, 255); font-family: Menlo, Monaco, &amp;quot;Courier New&amp;quot;, monospace; line-height: 18px;&quot;&gt;CALLBACK URI&lt;/div&gt;&lt;div style=&quot;background-color: rgb(255, 255, 255); font-family: Menlo, Monaco, &amp;quot;Courier New&amp;quot;, monospace; line-height: 18px;&quot;&gt;westeros.hevodata.com/services/oauth-redirect/netsuite/&lt;/div&gt;&lt;div style=&quot;background-color: rgb(255, 255, 255); font-family: Menlo, Monaco, &amp;quot;Courier New&amp;quot;, monospace; line-height: 18px;&quot;&gt;[CODE]&lt;/div&gt;" style="rounded=1;whiteSpace=wrap;html=1;" vertex="1" parent="1">
          <mxGeometry x="800" y="130.5" width="340" height="109" as="geometry" />
        </mxCell>
        <mxCell id="biQY5zSrBsS8nGypmLuS-13" value="" style="edgeStyle=orthogonalEdgeStyle;rounded=0;orthogonalLoop=1;jettySize=auto;html=1;" edge="1" parent="1" source="biQY5zSrBsS8nGypmLuS-10" target="biQY5zSrBsS8nGypmLuS-12">
          <mxGeometry relative="1" as="geometry" />
        </mxCell>
        <mxCell id="biQY5zSrBsS8nGypmLuS-14" value="Save refresh_token and use refresh_token to fetch new access_token" style="edgeLabel;html=1;align=center;verticalAlign=middle;resizable=0;points=[];fontSize=14;" vertex="1" connectable="0" parent="biQY5zSrBsS8nGypmLuS-13">
          <mxGeometry x="-0.2722" relative="1" as="geometry">
            <mxPoint as="offset" />
          </mxGeometry>
        </mxCell>
        <mxCell id="biQY5zSrBsS8nGypmLuS-10" value="&lt;span style=&quot;font-family: Inter, system-ui, -apple-system, system-ui, &amp;quot;Segoe UI&amp;quot;, Roboto, Oxygen, Ubuntu, Cantarell, &amp;quot;Fira Sans&amp;quot;, &amp;quot;Droid Sans&amp;quot;, Helvetica, Arial, sans-serif; text-align: left; background-color: rgb(255, 255, 255);&quot; data-offset-key=&quot;29m5j-2-0&quot;&gt;&lt;span style=&quot;&quot; data-text=&quot;true&quot;&gt;&lt;div style=&quot;font-family: Menlo, Monaco, &amp;quot;Courier New&amp;quot;, monospace; line-height: 18px;&quot;&gt;&lt;div style=&quot;color: rgb(0, 0, 0);&quot;&gt;curl --location --request POST &lt;span style=&quot;color: #a31515;&quot;&gt;&#39;https://&amp;lt;APP_ID&amp;gt;.suitetalk.api.netsuite.com/services/rest/auth/oauth2/v1/token&#39;&lt;/span&gt; \&lt;/div&gt;&lt;div style=&quot;color: rgb(0, 0, 0);&quot;&gt;--header &lt;span style=&quot;color: #a31515;&quot;&gt;&#39;Authorization: Basic XXX==&#39;&lt;/span&gt; \&lt;/div&gt;&lt;div style=&quot;color: rgb(0, 0, 0);&quot;&gt;--header &lt;span style=&quot;color: #a31515;&quot;&gt;&#39;Content-Type: application/x-www-form-urlencoded&#39;&lt;/span&gt; \&lt;/div&gt;&lt;div style=&quot;color: rgb(0, 0, 0);&quot;&gt;--data-urlencode &lt;span style=&quot;color: #a31515;&quot;&gt;&#39;code=173359a550c17fae51e89ac6bcfaaf71cba9924a0c2ee437e34c533ff9XXX&#39;&lt;/span&gt; \&lt;/div&gt;&lt;div style=&quot;color: rgb(0, 0, 0);&quot;&gt;--data-urlencode &lt;span style=&quot;color: #a31515;&quot;&gt;&#39;redirect_uri=https://westeros.hevodata.com/services/oauth-redirect/netsuite/&#39;&lt;/span&gt; \&lt;/div&gt;&lt;div style=&quot;color: rgb(0, 0, 0);&quot;&gt;--data-urlencode &lt;span style=&quot;color: #a31515;&quot;&gt;&#39;grant_type=authorization_code&#39;&lt;/span&gt;&lt;/div&gt;&lt;div style=&quot;color: rgb(0, 0, 0);&quot;&gt;&lt;span style=&quot;color: #a31515;&quot;&gt;&lt;br&gt;&lt;/span&gt;&lt;/div&gt;&lt;div style=&quot;&quot;&gt;&lt;font color=&quot;#a31515&quot;&gt;output:&lt;/font&gt;&lt;/div&gt;&lt;div style=&quot;&quot;&gt;&lt;font color=&quot;#a31515&quot;&gt;&amp;nbsp;- refresh_token&lt;/font&gt;&lt;/div&gt;&lt;/div&gt;&lt;/span&gt;&lt;/span&gt;" style="rounded=0;whiteSpace=wrap;html=1;" vertex="1" parent="1">
          <mxGeometry x="310" y="460" width="740" height="200" as="geometry" />
        </mxCell>
        <mxCell id="biQY5zSrBsS8nGypmLuS-16" value="" style="edgeStyle=orthogonalEdgeStyle;rounded=0;orthogonalLoop=1;jettySize=auto;html=1;" edge="1" parent="1" source="biQY5zSrBsS8nGypmLuS-12" target="biQY5zSrBsS8nGypmLuS-15">
          <mxGeometry relative="1" as="geometry" />
        </mxCell>
        <mxCell id="biQY5zSrBsS8nGypmLuS-17" value="&lt;font style=&quot;font-size: 13px;&quot;&gt;Using access_token to fetch a record&lt;/font&gt;" style="edgeLabel;html=1;align=center;verticalAlign=middle;resizable=0;points=[];" vertex="1" connectable="0" parent="biQY5zSrBsS8nGypmLuS-16">
          <mxGeometry x="-0.6041" y="-3" relative="1" as="geometry">
            <mxPoint y="1" as="offset" />
          </mxGeometry>
        </mxCell>
        <mxCell id="biQY5zSrBsS8nGypmLuS-19" value="save access_token also" style="edgeStyle=orthogonalEdgeStyle;rounded=0;orthogonalLoop=1;jettySize=auto;html=1;fontSize=13;" edge="1" parent="1" source="biQY5zSrBsS8nGypmLuS-12" target="biQY5zSrBsS8nGypmLuS-18">
          <mxGeometry relative="1" as="geometry" />
        </mxCell>
        <mxCell id="biQY5zSrBsS8nGypmLuS-12" value="&lt;div style=&quot;background-color: rgb(255, 255, 255); font-family: Menlo, Monaco, &amp;quot;Courier New&amp;quot;, monospace; line-height: 18px;&quot;&gt;&lt;div&gt;curl --location --request POST &lt;span style=&quot;color: #a31515;&quot;&gt;&#39;https://&amp;lt;APP_ID&amp;gt;.suitetalk.api.netsuite.com/services/rest/auth/oauth2/v1/token&#39;&lt;/span&gt; \&lt;/div&gt;&lt;div&gt;--header &lt;span style=&quot;color: #a31515;&quot;&gt;&#39;Content-Type: application/x-www-form-urlencoded&#39;&lt;/span&gt; \&lt;/div&gt;&lt;div&gt;--header &lt;span style=&quot;color: #a31515;&quot;&gt;&#39;Authorization: Basic XXX==&#39;&lt;/span&gt; \&lt;/div&gt;&lt;div&gt;--data-urlencode &lt;span style=&quot;color: #a31515;&quot;&gt;&#39;grant_type=refresh_token&#39;&lt;/span&gt; \&lt;/div&gt;&lt;div&gt;--data-urlencode &lt;span style=&quot;color: #a31515;&quot;&gt;&#39;refresh_token=XXX&#39;&lt;/span&gt;&lt;/div&gt;&lt;div&gt;&lt;span style=&quot;color: #a31515;&quot;&gt;&lt;br&gt;&lt;/span&gt;&lt;/div&gt;&lt;div&gt;&lt;font color=&quot;#a31515&quot;&gt;output:&lt;/font&gt;&lt;/div&gt;&lt;div&gt;&lt;font color=&quot;#a31515&quot;&gt;&amp;nbsp;- access_token&lt;/font&gt;&lt;/div&gt;&lt;/div&gt;" style="whiteSpace=wrap;html=1;rounded=0;align=left;" vertex="1" parent="1">
          <mxGeometry x="375" y="850" width="610" height="170" as="geometry" />
        </mxCell>
        <mxCell id="biQY5zSrBsS8nGypmLuS-15" value="&lt;div style=&quot;background-color: rgb(255, 255, 255); font-family: Menlo, Monaco, &amp;quot;Courier New&amp;quot;, monospace; line-height: 18px;&quot;&gt;&lt;div&gt;curl --location --request GET &lt;span style=&quot;color: #a31515;&quot;&gt;&#39;https://&amp;lt;APP_ID&amp;gt;.suitetalk.api.netsuite.com/services/rest/record/v1/phoneCall&#39;&lt;/span&gt; \&lt;/div&gt;&lt;div&gt;--header &lt;span style=&quot;color: #a31515;&quot;&gt;&#39;prefer: transient&#39;&lt;/span&gt; \&lt;/div&gt;&lt;div&gt;--header &lt;span style=&quot;color: #a31515;&quot;&gt;&#39;Authorization: Bearer &amp;lt;access_token&amp;gt;&#39;&lt;/span&gt;&lt;/div&gt;&lt;div&gt;&lt;span style=&quot;color: #a31515;&quot;&gt;&lt;br&gt;&lt;/span&gt;&lt;/div&gt;&lt;div&gt;&lt;span style=&quot;color: #a31515;&quot;&gt;output:&lt;/span&gt;&lt;/div&gt;&lt;div&gt;&lt;span style=&quot;color: #a31515;&quot;&gt;&amp;nbsp;- gives phoneCall data&amp;nbsp;&lt;/span&gt;&lt;/div&gt;&lt;/div&gt;" style="whiteSpace=wrap;html=1;align=left;rounded=0;" vertex="1" parent="1">
          <mxGeometry x="375" y="1100" width="610" height="135" as="geometry" />
        </mxCell>
        <mxCell id="biQY5zSrBsS8nGypmLuS-18" value="Back to same UI screen" style="rounded=1;whiteSpace=wrap;html=1;fontSize=13;" vertex="1" parent="1">
          <mxGeometry x="-60" y="370" width="120" height="60" as="geometry" />
        </mxCell>
      </root>
    </mxGraphModel>
  </diagram>
</mxfile>
